#!OML:ASF E:\Steps\Project 1\Capture day 1\Session 2\Subject.ASF
:FULLY-SPECIFIED
:DEGREES
64
root 16.9303 17.971 20.571 -155.024 -2.32187 176.065
lowerback -31.5099 -2.47753 -8.24724
upperback -0.409743 -0.856939 0.0812845
thorax 16.129 -1.25284 4.12832
lowerneck -4.7685 -0.750208 -0.0528873
upperneck 13.6411 -1.85883 2.6237
head 4.90198 -0.953112 0.698193
rclavicle -5.86415e-015 8.22472e-015
rhumerus -39.6162 -21.3804 -74.7737
rradius 32.0722
rwrist -1.46971
rhand -4.95322 -54.6698
rfingers 7.12502
rthumb 20.8384 -83.5707
lclavicle -5.86415e-015 8.22472e-015
lhumerus -31.043 5.6826 81.3305
lradius 22.2817
lwrist -4.72334
lhand -21.1945 -13.4176
lfingers 7.12502
lthumb 5.1866 16.499
rfemur -20.5316 4.47455 19.4166
rtibia 5.88988
rfoot -19.2588 -0.548433
rtoes -1.03659
lfemur -22.6337 -9.05541 -23.6233
ltibia 10.344
lfoot -7.68625 -3.98231
ltoes -1.68759
65
root 16.929 17.9716 20.569 -155.111 -2.3099 176.094
lowerback -31.4443 -2.45095 -8.20047
upperback -0.399339 -0.839498 0.0729124
thorax 16.11 -1.23943 4.1032
lowerneck -4.79123 -0.790502 0.00192018
upperneck 13.7216 -1.92416 2.59563
head 4.93095 -0.985606 0.676256
rclavicle 5.51627e-015 -2.95692e-015
rhumerus -39.6425 -21.3513 -74.7957
rradius 32.0627
rwrist -1.41416
rhand -4.97703 -54.508
rfingers 7.12502
rthumb 20.8155 -83.4114
lclavicle 5.51627e-015 -2.95692e-015
lhumerus -31.0511 5.6801 81.3205
lradius 22.2362
lwrist -4.68674
lhand -21.2091 -13.5633
lfingers 7.12502
lthumb 5.17247 16.3536
rfemur -20.3811 4.43778 19.4489
rtibia 5.78472
rfoot -19.286 -0.463328
rtoes -1.24021
lfemur -22.4895 -9.12582 -23.601
ltibia 10.2971
lfoot -7.6506 -3.75825
ltoes -2.57579
66
root 16.9309 17.9703 20.5729 -155.04 -2.35663 176.15
lowerback -31.4625 -2.46637 -8.16348
upperback -0.424176 -0.880581 0.101799
thorax 16.0945 -1.25558 4.09714
lowerneck -4.71409 -0.698668 -0.138454
upperneck 13.6094 -1.79625 2.74154
head 4.88366 -0.920879 0.752591
rclavicle 1.34583e-014 1.68718e-014
rhumerus -39.6164 -21.2613 -74.8504
rradius 32.1028
rwrist -1.4947
rhand -5.01852 -54.6107
rfingers 7.12502
rthumb 20.7756 -83.5185
lclavicle 1.34583e-014 1.68718e-014
lhumerus -31.0351 5.65452 81.3345
lradius 22.2025
lwrist -4.64038
lhand -21.2597 -13.4675
lfingers 7.12502
lthumb 5.1236 16.4505
rfemur -20.4693 4.40814 19.5446
rtibia 5.78494
rfoot -19.3361 -0.422363
rtoes -1.10688
lfemur -22.6168 -9.07926 -23.5064
ltibia 10.3394
lfoot -7.47464 -3.6534
ltoes -2.52947
67
root 16.926 17.9731 20.5697 -155.161 -2.35701 176.191
lowerback -31.3777 -2.44136 -8.06439
upperback -0.408907 -0.885758 0.107939
thorax 16.0763 -1.24785 4.05104
lowerneck -4.60048 -0.574549 -0.299609
upperneck 13.4331 -1.61428 2.87461
head 4.80922 -0.830681 0.831555
rclavicle 4.25834e-015 4.41302e-014
rhumerus -39.6193 -21.2234 -74.8465
rradius 32.0977
rwrist -1.53804
rhand -5.04726 -54.669
rfingers 7.12502
rthumb 20.748 -83.5798
lclavicle 4.25834e-015 4.41302e-014
lhumerus -31.0848 5.72653 81.3286
lradius 22.1899
lwrist -4.67733
lhand -21.243 -13.3465
lfingers 7.12502
lthumb 5.13974 16.5712
rfemur -20.3269 4.14234 19.5957
rtibia 5.75285
rfoot -19.2609 -0.0812835
rtoes -0.314684
lfemur -22.4412 -9.20497 -23.4751
ltibia 10.2617
lfoot -7.46631 -3.37498
ltoes -3.68419
68
root 16.9313 17.9707 20.5742 -155.041 -2.3608 176.217
lowerback -31.4091 -2.45186 -8.12319
upperback -0.488423 -0.895625 0.127819
thorax 15.9961 -1.25766 4.09832
lowerneck -4.57911 -0.566983 -0.308324
upperneck 13.4303 -1.60471 2.88205
head 4.80467 -0.826524 0.835899
rclavicle 4.4975e-015 -1.72197e-014
rhumerus -39.6673 -21.3264 -74.7868
rradius 32.0203
rwrist -1.48856
rhand -5.09506 -54.6182
rfingers 7.12502
rthumb 20.7021 -83.534
lclavicle 4.4975e-015 -1.72197e-014
lhumerus -31.155 5.74904 81.306
lradius 22.1657
lwrist -4.69633
lhand -21.1359 -13.1806
lfingers 7.12502
lthumb 5.2431 16.7345
rfemur -20.4986 4.04966 19.6789
rtibia 5.78753
rfoot -19.0089 0.189879
rtoes 1.30913
lfemur -22.6487 -8.96719 -23.4639
ltibia 10.3625
lfoot -7.49982 -3.50851
ltoes -5.67422
